<?xml version="1.0" encoding="utf-8"?>
<!-- Generator: Adobe Illustrator 24.0.0, SVG Export Plug-In . SVG Version: 6.00 Build 0)  -->
<svg version="1.1" id="Capa_1" xmlns="http://www.w3.org/2000/svg" xmlns:xlink="http://www.w3.org/1999/xlink" x="0px" y="0px"
	 viewBox="0 0 512 107" style="enable-background:new 0 0 512 107;" xml:space="preserve">
<style type="text/css">
	.st0{fill:#FFFFFF;}
	.st1{fill:url(#SVGID_1_);}
	.st2{fill:url(#SVGID_2_);}
	.st3{fill:url(#SVGID_3_);}
	.st4{fill:url(#SVGID_4_);}
</style>
<title>Group</title>
<desc>Created with Sketch.</desc>
<g>
	<path class="st0" d="M147.8,82.6c-1,0.4-2,0.9-3.1,1.2c-3.1,1-6.3,1.6-9.5,1.6c-6.6,0.1-12.9-2.3-17.9-6.6c-4.8-4.1-8-9.7-9-15.9
		c-2.3-13.8,6.2-27,19.7-30.7c3.1-0.8,6.2-1.1,9.4-0.9c2.7,0.2,5.4,0.8,7.9,1.8v-0.8c0-3.9,0-7.8,0-11.7c0-1.5,0.1-2.9,0.5-4.3
		c0.9-3.2,3-5.3,6.4-5.9c1.7-0.3,3.5-0.2,5.2,0.4c1.9,0.7,3.4,2.2,4.1,4.1c0.6,1.6,1,3.4,1,5.2c0,0.2,0,0.4,0,0.6c0,18,0,36,0,54.1
		c0,1.5-0.2,3.1-0.6,4.5c-2.1,6.4-9.7,7.3-13.7,3.6C148.1,82.8,148,82.7,147.8,82.6z M135.2,68.4c5.8,0,10.1-4.3,10.1-10.1
		s-4.3-10.1-10-10.2c-5.5-0.1-10.1,4.3-10.2,9.8c0,0.1,0,0.3,0,0.4C125.1,64.1,129.4,68.4,135.2,68.4z"/>
	<path class="st0" d="M188.1,64.1c0,0.9,0.4,1.8,1.1,2.4c1.3,1.4,2.9,2.5,4.7,3.1c2,0.7,4.1,0.6,6.2,0.5c2.4-0.2,4.8-1,6.9-2.1
		c1.6-0.9,3.4-1.2,5.3-1.1c0.7,0,1.4,0.2,2,0.4c2.3,0.7,3.7,2.6,3.9,5.2c0.3,2.8-0.8,5.5-2.9,7.3c-2.6,2.4-5.8,4.1-9.3,4.8
		c-3.9,0.8-7.9,1.1-11.9,0.7c-4.8-0.4-9.3-2.2-13.1-5c-5.9-4.3-9.6-10.1-10.8-17.3c-1.6-9.9,1.2-18.4,8.7-25.1
		c3.9-3.5,8.8-5.8,14-6.4c5.5-0.7,10.8-0.2,15.8,2.3c8,4.1,12.9,10.4,14.6,19.3c0.3,1.3,0.4,2.7,0.2,4c-0.4,3.5-3.2,6.2-6.2,6.9
		c-0.8,0.2-1.7,0.3-2.6,0.3c-8.6,0-17.2,0-25.9,0L188.1,64.1z M187.7,52.4h18.4c0-0.9-0.4-1.7-1-2.3c-0.9-0.9-2-1.6-3.1-2.1
		c-1.5-0.6-3.2-0.9-4.8-0.9c-2.7-0.1-5.4,0.9-7.5,2.7c-0.6,0.5-1.1,1.1-1.5,1.7C187.9,51.7,187.8,52,187.7,52.4z"/>
	<path class="st0" d="M296.8,85.3c-15,0.1-27.2-12-27.3-26.9c0-0.1,0-0.2,0-0.4c0-15.1,12.4-27.1,27.3-27.1
		c15,0,27.1,12.1,27.1,27.1C323.9,73.9,311.1,85.5,296.8,85.3z M296.8,48.1c-5.5,0.1-9.9,4.7-9.8,10.2c0.1,5.4,4.4,9.7,9.8,9.8
		c5.5,0.1,10-4.6,9.9-10.1C306.7,52.7,302.1,47.9,296.8,48.1L296.8,48.1z"/>
	<path class="st0" d="M236.5,58c-0.2-0.2-0.3-0.5-0.4-0.7c-2.8-4.4-5.6-8.9-8.4-13.3c-1.4-2.3-1.4-4.9-0.4-7.4
		c1.6-3.9,5.5-5.4,8.5-5.3c2.9,0,5.5,1.7,6.8,4.3l3.8,7.2c0.1,0.2,0.2,0.4,0.4,0.7c0.1-0.2,0.2-0.3,0.3-0.5c1.2-2.3,2.5-4.6,3.6-7
		c1.8-3.8,6.3-5.7,10.6-4c3.5,1.3,5.7,4.6,5.6,8.3c-0.1,1.4-0.5,2.7-1.3,3.9c-2.8,4.4-5.5,8.8-8.3,13.2c-0.1,0.2-0.3,0.4-0.4,0.7
		l0.4,0.7c2.8,4.3,5.5,8.5,8.3,12.8c0.7,1.1,1.2,2.4,1.4,3.7c0.3,3.3-1.3,6.6-4.2,8.4c-2.6,1.5-5.2,1.8-8,0.6c-1.7-0.7-3.1-2-4-3.7
		c-1.2-2.3-2.4-4.7-3.7-7c-0.1-0.2-0.2-0.5-0.4-0.8c-0.1,0.2-0.2,0.4-0.3,0.5c-1.2,2.4-2.4,4.7-3.6,7.1c-1.8,3.6-6.1,5.4-9.9,4.1
		c-3.1-1-5.2-3-6-6.2c-0.6-2.4-0.1-4.7,1.2-6.8l8.2-13C236.3,58.4,236.4,58.2,236.5,58z"/>
</g>
<g>
	
		<linearGradient id="SVGID_1_" gradientUnits="userSpaceOnUse" x1="48.9008" y1="107.6373" x2="15.747" y2="42.9888" gradientTransform="matrix(1 0 0 -1 0 108.6456)">
		<stop  offset="1.000000e-02" style="stop-color:#0997D5"/>
		<stop  offset="1" style="stop-color:#3356D1"/>
	</linearGradient>
	<path class="st1" d="M69,16.1c-3-1.3-6.5-1.1-9.3,0.6l-17.4,10l-3.3,1.9l-11.8,6.9c-0.2,0.1-0.4,0.2-0.6,0.4
		c-2.8,1.9-4.6,5.1-4.6,8.5v18.5c0,1.6,0.4,3.2,1.3,4.6l0.1,0.2c0.7,1.2,1.7,2.2,2.9,2.9L17.6,85L14,83l-3.5-2
		c-3.4-1.9-5.4-5.5-5.4-9.4V34.8c0-3.9,2.1-7.5,5.4-9.4l11.6-6.7L42.3,7c3.4-1.9,7.5-1.9,10.9,0l3.5,2l3.9,2.2l0.3,0.2L69,16.1z"/>
	
		<linearGradient id="SVGID_2_" gradientUnits="userSpaceOnUse" x1="30.5455" y1="26.4959" x2="77.5925" y2="67.0616" gradientTransform="matrix(1 0 0 -1 0 108.6456)">
		<stop  offset="1.000000e-02" style="stop-color:#3356D1"/>
		<stop  offset="0.2" style="stop-color:#4041D0"/>
		<stop  offset="0.52" style="stop-color:#5424CE"/>
		<stop  offset="0.8" style="stop-color:#6011CC"/>
		<stop  offset="1" style="stop-color:#640BCC"/>
	</linearGradient>
	<path class="st2" d="M73.7,43.6V62c0,3.2-1.5,6.2-4,8.1c-0.2,0.1-0.4,0.3-0.6,0.4c-0.2,0.1-0.4,0.3-0.6,0.4l-15.1,8.7L36,89.7
		c-3,1.7-6.6,1.9-9.7,0.4c-0.2-0.1-0.5-0.2-0.7-0.4l-2.3-1.3l-1.2-0.7L17.6,85l8.8-14.6c2,1.2,4.4,1.6,6.6,1.1l0.1,0
		c0.9-0.2,1.7-0.5,2.5-1l3.5-2l12.5-7.2c3.2-1.8,5.1-5.2,5.1-8.8V37.9l3.5-2c0.8-0.5,1.6-0.8,2.5-1c0,0,0.1,0,0.1,0
		c3.7-0.9,7.5,0.7,9.5,4c0,0,0.1,0.1,0.1,0.2C73.2,40.3,73.7,41.9,73.7,43.6z"/>
	
		<linearGradient id="SVGID_3_" gradientUnits="userSpaceOnUse" x1="-2516.4109" y1="3266.4495" x2="-2549.5647" y2="3201.8057" gradientTransform="matrix(-1 0 0 1 -2469.53 -3161.1758)">
		<stop  offset="1.000000e-02" style="stop-color:#0997D5"/>
		<stop  offset="1" style="stop-color:#3356D1"/>
	</linearGradient>
	<path class="st3" d="M26.7,90.2c3,1.3,6.5,1.1,9.3-0.6l17.4-10l3.3-1.9l11.9-6.9c0.2-0.1,0.4-0.2,0.6-0.4c2.8-1.9,4.5-5.1,4.5-8.5
		V43.6c0-1.6-0.4-3.2-1.3-4.6l-0.1-0.2c-0.7-1.2-1.7-2.2-2.9-2.9l8.8-14.6l3.6,2.1l3.5,2c3.4,1.9,5.4,5.5,5.4,9.4v36.8
		c0,3.9-2.1,7.5-5.4,9.4l-11.6,6.7L53.4,99.3c-3.4,1.9-7.5,1.9-10.9,0l-3.5-2L35.2,95l-0.3-0.2L26.7,90.2z"/>
	
		<linearGradient id="SVGID_4_" gradientUnits="userSpaceOnUse" x1="-2534.7686" y1="3185.3083" x2="-2487.7168" y2="3225.8787" gradientTransform="matrix(-1 0 0 1 -2469.53 -3161.1758)">
		<stop  offset="1.000000e-02" style="stop-color:#3356D1"/>
		<stop  offset="0.2" style="stop-color:#4041D0"/>
		<stop  offset="0.52" style="stop-color:#5424CE"/>
		<stop  offset="0.8" style="stop-color:#6011CC"/>
		<stop  offset="1" style="stop-color:#640BCC"/>
	</linearGradient>
	<path class="st4" d="M22.1,62.7V44.3c0-3.2,1.5-6.2,4-8.1c0.2-0.1,0.4-0.3,0.6-0.4s0.4-0.2,0.6-0.4l15.1-8.7l17.4-10
		c3-1.7,6.6-1.9,9.7-0.4c0.2,0.1,0.5,0.2,0.7,0.4l2.3,1.3l1.2,0.7l4.5,2.6l-8.8,14.6c-2-1.2-4.4-1.6-6.6-1.1l-0.1,0
		c-0.9,0.2-1.7,0.5-2.5,1l-3.5,2L44.2,45c-3.2,1.8-5.1,5.2-5.1,8.8v14.6l-3.5,2c-0.8,0.5-1.6,0.8-2.5,1l-0.1,0
		c-3.7,0.9-7.5-0.7-9.5-4c0,0-0.1-0.1-0.1-0.2C22.6,66,22.1,64.4,22.1,62.7z"/>
</g>
</svg>
