<?xml version="1.0" encoding="utf-8"?>
<!-- Generator: Adobe Illustrator 24.0.0, SVG Export Plug-In . SVG Version: 6.00 Build 0)  -->
<svg version="1.1" id="Capa_1" xmlns="http://www.w3.org/2000/svg" xmlns:xlink="http://www.w3.org/1999/xlink" x="0px" y="0px"
	 viewBox="0 0 110.6 110.6" style="enable-background:new 0 0 110.6 110.6;" xml:space="preserve">
<style type="text/css">
	.st0{fill:url(#SVGID_1_);}
	.st1{fill:url(#SVGID_2_);}
	.st2{fill:url(#SVGID_3_);}
	.st3{fill:url(#SVGID_4_);}
</style>
<title>Group</title>
<desc>Created with Sketch.</desc>
<g>
	
		<linearGradient id="SVGID_1_" gradientUnits="userSpaceOnUse" x1="56.3769" y1="112.8121" x2="21.1069" y2="44.0371" gradientTransform="matrix(1 0 0 -1 0 112.6456)">
		<stop  offset="1.000000e-02" style="stop-color:#0997D5"/>
		<stop  offset="1" style="stop-color:#3356D1"/>
	</linearGradient>
	<path class="st0" d="M77.8,15.8c-3.2-1.4-6.9-1.2-9.9,0.6L49.4,27.1l-3.5,2l-12.6,7.3c-0.2,0.1-0.4,0.3-0.6,0.4
		c-3,2-4.9,5.4-4.9,9.1v19.7c0,1.7,0.5,3.4,1.4,4.9l0.1,0.2c0.8,1.3,1.8,2.3,3.1,3.1l-9.3,15.5L19.2,87l-3.7-2.1
		c-3.6-2.1-5.8-5.9-5.8-10V35.8c0-4.1,2.2-7.9,5.8-10l12.4-7.1L49.4,6.2c3.6-2.1,8-2.1,11.6,0l3.7,2.1l4.1,2.4l0.3,0.2L77.8,15.8z"
		/>
	
		<linearGradient id="SVGID_2_" gradientUnits="userSpaceOnUse" x1="36.85" y1="26.4914" x2="86.9001" y2="69.6464" gradientTransform="matrix(1 0 0 -1 0 112.6456)">
		<stop  offset="1.000000e-02" style="stop-color:#3356D1"/>
		<stop  offset="0.2" style="stop-color:#4041D0"/>
		<stop  offset="0.52" style="stop-color:#5424CE"/>
		<stop  offset="0.8" style="stop-color:#6011CC"/>
		<stop  offset="1" style="stop-color:#640BCC"/>
	</linearGradient>
	<path class="st1" d="M82.7,45.1v19.7c0,3.4-1.6,6.6-4.2,8.6c-0.2,0.1-0.4,0.3-0.6,0.4s-0.4,0.3-0.6,0.4l-16.1,9.3L42.7,94.2
		c-3.2,1.8-7,2-10.3,0.4c-0.3-0.1-0.5-0.3-0.8-0.4l-2.5-1.4L27.9,92l-4.8-2.8l9.3-15.5c2.1,1.3,4.6,1.7,7.1,1.2l0.1,0
		c0.9-0.2,1.8-0.6,2.6-1l3.8-2.2l13.3-7.7c3.4-1.9,5.4-5.5,5.4-9.4V39l3.8-2.2c0.8-0.5,1.7-0.8,2.6-1c0,0,0.1,0,0.1,0
		c3.9-1,8,0.8,10.1,4.2c0,0.1,0.1,0.1,0.1,0.2C82.3,41.7,82.7,43.4,82.7,45.1z"/>
	
		<linearGradient id="SVGID_3_" gradientUnits="userSpaceOnUse" x1="-2925.7581" y1="3271.9299" x2="-2961.0281" y2="3203.1599" gradientTransform="matrix(-1 0 0 1 -2871.53 -3161.1758)">
		<stop  offset="1.000000e-02" style="stop-color:#0997D5"/>
		<stop  offset="1" style="stop-color:#3356D1"/>
	</linearGradient>
	<path class="st2" d="M32.8,94.8c3.2,1.4,6.9,1.1,9.9-0.6l18.5-10.7l3.5-2l12.6-7.3c0.2-0.1,0.4-0.3,0.6-0.4c3-2,4.8-5.4,4.8-9V45.1
		c0-1.7-0.5-3.4-1.4-4.9L81.3,40c-0.8-1.3-1.8-2.3-3.1-3.1l9.3-15.6l3.8,2.2l3.7,2.1c3.6,2.1,5.8,5.9,5.8,10v39.1
		c0,4.1-2.2,7.9-5.8,10L82.7,92l-21.5,12.4c-3.6,2.1-8,2.1-11.6,0l-3.7-2.1l-4.1-2.4l-0.3-0.2L32.8,94.8z"/>
	
		<linearGradient id="SVGID_4_" gradientUnits="userSpaceOnUse" x1="-2945.2876" y1="3185.6096" x2="-2895.2324" y2="3228.7695" gradientTransform="matrix(-1 0 0 1 -2871.53 -3161.1758)">
		<stop  offset="1.000000e-02" style="stop-color:#3356D1"/>
		<stop  offset="0.2" style="stop-color:#4041D0"/>
		<stop  offset="0.52" style="stop-color:#5424CE"/>
		<stop  offset="0.8" style="stop-color:#6011CC"/>
		<stop  offset="1" style="stop-color:#640BCC"/>
	</linearGradient>
	<path class="st3" d="M27.9,65.5V45.8c0-3.4,1.6-6.6,4.2-8.6c0.2-0.1,0.4-0.3,0.6-0.4s0.4-0.3,0.6-0.4l16.1-9.3l18.5-10.7
		c3.2-1.8,7-2,10.3-0.4c0.3,0.1,0.5,0.3,0.8,0.4l2.5,1.4l1.2,0.7l4.8,2.8l-9.3,15.5c-2.1-1.3-4.6-1.7-7-1.1l-0.1,0
		c-0.9,0.2-1.8,0.6-2.6,1L64.6,39l-13.3,7.7C48,48.6,46,52.2,46,56v15.5l-3.8,2.2c-0.8,0.5-1.7,0.8-2.6,1l-0.1,0
		c-3.9,1-8-0.8-10.1-4.2c0,0-0.1-0.1-0.1-0.2C28.4,68.9,27.9,67.2,27.9,65.5z"/>
</g>
</svg>
